<?xml version="1.0" encoding="UTF-8"?>
<svg version="1.1" xmlns="http://www.w3.org/2000/svg" width="128" height="128">
<path d="M0 0 C13.53 0 27.06 0 41 0 C41 5.28 41 10.56 41 16 C44.3 16 47.6 16 51 16 C51 21.61 51 27.22 51 33 C53.97 33 56.94 33 60 33 C60 27.39 60 21.78 60 16 C63.3 16 66.6 16 70 16 C70 10.72 70 5.44 70 0 C83.53 0 97.06 0 111 0 C111.74869777 17.01504823 111.74869777 17.01504823 112.06640625 24.484375 C112.2800241 29.50570165 112.49479071 34.52695249 112.71826172 39.54785156 C113.45752719 56.19558935 114.13518252 72.83384436 114.1875 89.5 C114.19438843 90.6623819 114.20127686 91.82476379 114.20837402 93.02236938 C114.17618308 104.83805649 112.65073357 116.30730387 111 128 C97.47 128 83.94 128 70 128 C70 122.39 70 116.78 70 111 C60.43 111 50.86 111 41 111 C41 116.61 41 122.22 41 128 C27.47 128 13.94 128 0 128 C-1.82367359 115.08231208 -3.26480904 102.54544814 -3.1875 89.5 C-3.18351196 88.22957855 -3.17952393 86.9591571 -3.17541504 85.65023804 C-3.08186729 69.45517655 -2.32931274 53.27681591 -1.60931396 37.10003662 C-1.39059184 32.14783063 -1.18171141 27.19519961 -0.97105408 22.24264526 C-0.65463512 14.828091 -0.32623848 7.4141578 0 0 Z " fill="#BBB0AC" transform="translate(8,0)"/>
<path d="M0 0 C13.53 0 27.06 0 41 0 C41 5.28 41 10.56 41 16 C44.3 16 47.6 16 51 16 C51 21.61 51 27.22 51 33 C53.97 33 56.94 33 60 33 C60 27.39 60 21.78 60 16 C63.3 16 66.6 16 70 16 C70 10.72 70 5.44 70 0 C83.53 0 97.06 0 111 0 C111.74869777 17.01504823 111.74869777 17.01504823 112.06640625 24.484375 C112.2800241 29.50570165 112.49479071 34.52695249 112.71826172 39.54785156 C113.45752719 56.19558935 114.13518252 72.83384436 114.1875 89.5 C114.19438843 90.6623819 114.20127686 91.82476379 114.20837402 93.02236938 C114.17618308 104.83805649 112.65073357 116.30730387 111 128 C97.47 128 83.94 128 70 128 C70 122.39 70 116.78 70 111 C60.43 111 50.86 111 41 111 C41 116.61 41 122.22 41 128 C27.47 128 13.94 128 0 128 C-1.82367359 115.08231208 -3.26480904 102.54544814 -3.1875 89.5 C-3.18351196 88.22957855 -3.17952393 86.9591571 -3.17541504 85.65023804 C-3.08186729 69.45517655 -2.32931274 53.27681591 -1.60931396 37.10003662 C-1.39059184 32.14783063 -1.18171141 27.19519961 -0.97105408 22.24264526 C-0.65463512 14.828091 -0.32623848 7.4141578 0 0 Z M6 7 C5.24413603 10.77931983 4.8311782 13.91490393 4.70288086 17.71044922 C4.66291489 18.83707977 4.62294891 19.96371033 4.58177185 21.1244812 C4.54318558 22.33894928 4.5045993 23.55341736 4.46484375 24.8046875 C4.42186661 26.07482697 4.37888947 27.34496643 4.33460999 28.65359497 C4.24439257 31.35186426 4.15584417 34.05012713 4.07006836 36.74853516 C3.9834782 39.46741809 3.89342943 42.18614379 3.79956055 44.90478516 C3.22391579 61.61382 2.89746957 78.28070492 3 95 C13.23 95 23.46 95 34 95 C35.55977064 91.88045872 35.12104126 88.57040616 35.09765625 85.1484375 C35.09553383 83.98738998 35.09553383 83.98738998 35.09336853 82.80288696 C35.08776403 80.32688558 35.07521083 77.85097412 35.0625 75.375 C35.05748558 73.69791797 35.05292257 72.02083453 35.04882812 70.34375 C35.03779315 66.22913194 35.02052554 62.11458122 35 58 C38.3 58 41.6 58 45 58 C45 63.94 45 69.88 45 76 C51.93 76 58.86 76 66 76 C66 70.06 66 64.12 66 58 C69.3 58 72.6 58 76 58 C75.99214478 59.20160767 75.99214478 59.20160767 75.98413086 60.42749023 C75.9631958 64.09748534 75.95028757 67.76746782 75.9375 71.4375 C75.92493164 73.32758789 75.92493164 73.32758789 75.91210938 75.25585938 C75.90727539 77.10727539 75.90727539 77.10727539 75.90234375 78.99609375 C75.89448853 80.68496704 75.89448853 80.68496704 75.88647461 82.40795898 C76.01958173 86.61958282 76.53467173 90.81204555 77 95 C87.23 95 97.46 95 108 95 C108.10663821 77.6108622 107.73119481 60.27658252 107.13116455 42.8984375 C107.03829681 40.16176955 106.95143235 37.4249225 106.86443424 34.68806267 C106.75866369 31.39346992 106.64662753 28.09909154 106.53515625 24.8046875 C106.49656998 23.59021942 106.4579837 22.37575134 106.41822815 21.1244812 C106.35827919 19.43453537 106.35827919 19.43453537 106.29711914 17.71044922 C106.26380997 16.72503143 106.23050079 15.73961365 106.19618225 14.72433472 C106.02823867 11.59874958 106.02823867 11.59874958 105 7 C95.43 7 85.86 7 76 7 C76 12.61 76 18.22 76 24 C72.7 24 69.4 24 66 24 C66 29.61 66 35.22 66 41 C59.07 41 52.14 41 45 41 C45 35.39 45 29.78 45 24 C41.7 24 38.4 24 35 24 C35 18.39 35 12.78 35 7 C25.43 7 15.86 7 6 7 Z " fill="#010101" transform="translate(8,0)"/>
<path d="M0 0 C4.62 0 9.24 0 14 0 C14.09289153 5.29481709 13.76541303 9.64210878 13 15 C18.94 15 24.88 15 31 15 C31.02688338 18.29172069 31.0467821 21.58322354 31.0625 24.875 C31.07087891 25.81214844 31.07925781 26.74929687 31.08789062 27.71484375 C31.09111328 28.61074219 31.09433594 29.50664063 31.09765625 30.4296875 C31.10289307 31.25710449 31.10812988 32.08452148 31.11352539 32.93701172 C31 35 31 35 30 37 C19.77 37 9.54 37 -1 37 C-1.07308691 24.57522524 -1.11231272 12.37447898 0 0 Z " fill="#AFA4A0" transform="translate(12,58)"/>
<path d="M0 0 C10.23 0 20.46 0 31 0 C32.32229189 2.64458379 32.09677194 4.67761301 32.0625 7.625 C32.05347656 8.62789062 32.04445312 9.63078125 32.03515625 10.6640625 C32.02355469 11.43492188 32.01195312 12.20578125 32 13 C28.7 13 25.4 13 22 13 C22 13.99 22 14.98 22 16 C25.3 16 28.6 16 32 16 C32 19.3 32 22.6 32 26 C22.43 26 12.86 26 3 26 C1.33336653 22.66673305 1.32924475 18.91789162 0.9375 15.25 C0.84662109 14.45078125 0.75574219 13.6515625 0.66210938 12.828125 C0.18616683 8.47665033 0 4.41595698 0 0 Z " fill="#3D3938" transform="translate(11,95)"/>
<path d="M0 0 C10.23 0 20.46 0 31 0 C30.67 4.29 30.34 8.58 30 13 C26.37 13 22.74 13 19 13 C19 13.99 19 14.98 19 16 C22.3 16 25.6 16 29 16 C29.125 23.75 29.125 23.75 28 26 C18.43 26 8.86 26 -1 26 C-1.020625 22.08125 -1.04125 18.1625 -1.0625 14.125 C-1.071604 12.89023926 -1.08070801 11.65547852 -1.09008789 10.38330078 C-1.09258545 9.41376465 -1.09508301 8.44422852 -1.09765625 7.4453125 C-1.10289307 6.45031738 -1.10812988 5.45532227 -1.11352539 4.43017578 C-1 2 -1 2 0 0 Z " fill="#3D3938" transform="translate(85,95)"/>
<path d="M0 0 C9.57 0 19.14 0 29 0 C29.80443697 4.02218486 30.11753548 7.14029741 30.09765625 11.17578125 C30.09443359 12.33271484 30.09121094 13.48964844 30.08789062 14.68164062 C30.07951172 15.87982422 30.07113281 17.07800781 30.0625 18.3125 C30.05798828 19.53001953 30.05347656 20.74753906 30.04882812 22.00195312 C30.03706589 25.00132318 30.0191311 28.00066789 30 31 C24.39 31 18.78 31 13 31 C13 25.39 13 19.78 13 14 C8.71 14 4.42 14 0 14 C0 9.38 0 4.76 0 0 Z " fill="#CCC1BC" transform="translate(84,7)"/>
<path d="M0 0 C6.93 0 13.86 0 21 0 C21.020625 3.135 21.04125 6.27 21.0625 9.5 C21.071604 10.47130859 21.08070801 11.44261719 21.09008789 12.44335938 C21.09258545 13.23548828 21.09508301 14.02761719 21.09765625 14.84375 C21.10551147 16.03774414 21.10551147 16.03774414 21.11352539 17.25585938 C20.96469701 20.85334534 20.4465949 24.42724082 20 28 C13.73 28 7.46 28 1 28 C-0.125 19 -0.125 19 -0.09765625 14.84375 C-0.09515869 14.05162109 -0.09266113 13.25949219 -0.09008789 12.44335938 C-0.08098389 11.47205078 -0.07187988 10.50074219 -0.0625 9.5 C-0.041875 6.365 -0.02125 3.23 0 0 Z " fill="#3C3837" transform="translate(53,76)"/>
<path d="M0 0 C9.57 0 19.14 0 29 0 C29 4.62 29 9.24 29 14 C19.1 14 9.2 14 -1 14 C-1 5 -1 5 0 0 Z " fill="#CFC4C0" transform="translate(14,7)"/>
<path d="M0 0 C4.62 0 9.24 0 14 0 C14.09289153 5.29481709 13.76541303 9.64210878 13 15 C18.94 15 24.88 15 31 15 C31 21.6 31 28.2 31 35 C30.67 35 30.34 35 30 35 C30 32.36 30 29.72 30 27 C23.4 27 16.8 27 10 27 C10 19.08 10 11.16 10 3 C6.7 3 3.4 3 0 3 C0 2.01 0 1.02 0 0 Z " fill="#837B78" transform="translate(12,58)"/>
<path d="M0 0 C6.6 0 13.2 0 20 0 C20 4.62 20 9.24 20 14 C13.4 14 6.8 14 0 14 C0 9.38 0 4.76 0 0 Z " fill="#C9BEBA" transform="translate(74,24)"/>
<path d="M0 0 C4.29 0 8.58 0 13 0 C13 5.61 13 11.22 13 17 C18.61 17 24.22 17 30 17 C30 17.99 30 18.98 30 20 C16.8 20 3.6 20 -10 20 C-10 19.01 -10 18.02 -10 17 C-3.4 17 3.2 17 10 17 C10 12.38 10 7.76 10 3 C6.7 3 3.4 3 0 3 C0 2.01 0 1.02 0 0 Z " fill="#8C837F" transform="translate(84,21)"/>
<path d="M0 0 C5.61 0 11.22 0 17 0 C17 1.98 17 3.96 17 6 C11.39 6 5.78 6 0 6 C0 4.02 0 2.04 0 0 Z " fill="#B7ACA7" transform="translate(25,76)"/>
<path d="M0 0 C9.9 0 19.8 0 30 0 C30 0.99 30 1.98 30 3 C20.1 3 10.2 3 0 3 C0 2.01 0 1.02 0 0 Z " fill="#89807D" transform="translate(13,21)"/>
<path d="M0 0 C3.63 0 7.26 0 11 0 C10.67 0.99 10.34 1.98 10 3 C6.7 3 3.4 3 0 3 C0 2.01 0 1.02 0 0 Z " fill="#1F1D1C" transform="translate(104,108)"/>
<path d="M0 0 C3.3 0 6.6 0 10 0 C10 0.99 10 1.98 10 3 C6.7 3 3.4 3 0 3 C0 2.01 0 1.02 0 0 Z " fill="#1E1D1C" transform="translate(33,108)"/>
</svg>
