<svg width="14" height="11" viewBox="0 0 14 11" fill="none" xmlns="http://www.w3.org/2000/svg">
<path d="M12.0806 0.131794C12.0806 0.131794 13.2138 -0.310081 13.1194 0.763045C13.0879 1.20493 12.8046 2.75149 12.5843 4.42431L11.8288 9.37964C11.8288 9.37964 11.7659 10.1056 11.1992 10.2318C10.6326 10.3581 9.78273 9.78996 9.62532 9.6637C9.49941 9.56902 7.26448 8.14869 6.47751 7.45432C6.25715 7.26494 6.00533 6.88618 6.50898 6.44431L9.8142 3.28807C10.1919 2.90931 10.5697 2.02556 8.99576 3.09869L4.58882 6.09714C4.58882 6.09714 4.08517 6.41275 3.14084 6.1287L1.09475 5.49744C1.09475 5.49744 0.33927 5.02401 1.62988 4.55055C4.7777 3.0671 8.64952 1.5521 12.0806 0.131794Z" fill="white" fill-opacity="0.4"/>
</svg>
