<svg width="14" height="10" viewBox="0 0 14 10" fill="none" xmlns="http://www.w3.org/2000/svg">
<path fill-rule="evenodd" clip-rule="evenodd" d="M5.5545 6.82873L5.55406 2.86726L9.33669 4.85483L5.5545 6.82873ZM13.86 2.1808C13.86 2.1808 13.7231 1.20927 13.3035 0.781448C12.7711 0.219679 12.1743 0.21703 11.9009 0.184425C9.94175 0.0416697 7.00306 0.0416718 7.00306 0.0416718H6.99694C6.99694 0.0416718 4.05825 0.0416697 2.09913 0.184425C1.82525 0.21703 1.22894 0.219679 0.696064 0.781448C0.276501 1.20927 0.139999 2.1808 0.139999 2.1808C0.139999 2.1808 0 3.32197 0 4.46269V5.53248C0 6.67364 0.139999 7.81436 0.139999 7.81436C0.139999 7.81436 0.276501 8.78589 0.696064 9.21372C1.22894 9.77549 1.9285 9.75787 2.24 9.81647C3.36 9.92485 7 9.95834 7 9.95834C7 9.95834 9.94175 9.95393 11.9009 9.81118C12.1743 9.77813 12.7711 9.77549 13.3035 9.21372C13.7231 8.78589 13.86 7.81436 13.86 7.81436C13.86 7.81436 14 6.67364 14 5.53248V4.46269C14 3.32197 13.86 2.1808 13.86 2.1808Z" fill="white" fill-opacity="0.4"/>
</svg>
